<?xml version="1.0" encoding="UTF-8"?>
<svg width="400" height="300" viewBox="0 0 400 300" fill="none" xmlns="http://www.w3.org/2000/svg">
  <!-- Background -->
  <rect width="400" height="300" rx="14" fill="white"/>

  <!-- Header -->
  <rect width="400" height="56" rx="14" fill="url(#pixGrad)"/>
  <rect y="42" width="400" height="14" fill="url(#pixGrad)"/>

  <!-- PIX Icon -->
  <text x="200" y="28" font-family="system-ui, sans-serif" font-size="20" fill="white" text-anchor="middle">◆</text>
  <text x="200" y="48" font-family="system-ui, sans-serif" font-size="14" font-weight="600" fill="white" text-anchor="middle">Pagamento via PIX</text>

  <!-- QR Code Placeholder -->
  <rect x="125" y="72" width="150" height="150" rx="12" fill="#F8F9FB" stroke="#EEF0F3" stroke-width="2"/>

  <!-- QR Code pattern (simplified) -->
  <rect x="140" y="87" width="20" height="20" fill="#333"/>
  <rect x="165" y="87" width="10" height="10" fill="#333"/>
  <rect x="180" y="87" width="10" height="10" fill="#333"/>
  <rect x="200" y="87" width="10" height="10" fill="#333"/>
  <rect x="220" y="87" width="10" height="10" fill="#333"/>
  <rect x="240" y="87" width="20" height="20" fill="#333"/>

  <rect x="140" y="112" width="10" height="10" fill="#333"/>
  <rect x="165" y="112" width="10" height="10" fill="#333"/>
  <rect x="195" y="112" width="10" height="10" fill="#333"/>
  <rect x="220" y="112" width="10" height="10" fill="#333"/>
  <rect x="250" y="112" width="10" height="10" fill="#333"/>

  <rect x="140" y="137" width="20" height="20" fill="#333"/>
  <rect x="170" y="142" width="60" height="10" fill="#333"/>
  <rect x="240" y="137" width="20" height="20" fill="#333"/>

  <rect x="140" y="162" width="10" height="10" fill="#333"/>
  <rect x="165" y="162" width="10" height="10" fill="#333"/>
  <rect x="195" y="162" width="10" height="10" fill="#333"/>
  <rect x="220" y="162" width="10" height="10" fill="#333"/>
  <rect x="250" y="162" width="10" height="10" fill="#333"/>

  <rect x="140" y="187" width="20" height="20" fill="#333"/>
  <rect x="175" y="192" width="10" height="10" fill="#333"/>
  <rect x="195" y="192" width="10" height="10" fill="#333"/>
  <rect x="215" y="192" width="10" height="10" fill="#333"/>
  <rect x="240" y="187" width="20" height="20" fill="#333"/>

  <!-- Price -->
  <text x="200" y="248" font-family="system-ui, sans-serif" font-size="28" font-weight="700" fill="#0F3460" text-anchor="middle">R$ 150,00</text>

  <!-- Expiration -->
  <text x="200" y="268" font-family="system-ui, sans-serif" font-size="11" fill="#8B95A2" text-anchor="middle">Pedido #5678 · Válido por 30 minutos</text>

  <!-- Footer -->
  <text x="200" y="288" font-family="system-ui, sans-serif" font-size="10" fill="#B0B8C4" text-anchor="middle">Escaneie o QR Code ou copie o código</text>

  <defs>
    <linearGradient id="pixGrad" x1="0%" y1="0%" x2="100%" y2="100%">
      <stop offset="0%" style="stop-color:#00897B"/>
      <stop offset="100%" style="stop-color:#26A69A"/>
    </linearGradient>
  </defs>
</svg>
